# xmcd
#
# Track frame offsets: 
#        150
#        16592
#        33320
#        45012
#        58165
#        72815
#        86192
#        101055
#        112985
#        131415
#
# Disc length: 1927 seconds
#
# Revision: 0
# Processed by: cddbd v1.5.1PL0 Copyright (c) Steve Scherf et al.
# Submitted via: ExactAudioCopy v0.95a5
#
DISCID=7507850a
DTITLE=Crowe, J.D. and the New South - My Home Ain't in the Hall of Fame
DYEAR=1978
DGENRE=Bluegrass
TTITLE0=My Home Ain't in the Hall of Fame
TTITLE1=(I'll Be Your) Stepping Stone
TTITLE2=She's Gone, Gone, Gone
TTITLE3=Railroad Lady
TTITLE4=Sin City
TTITLE5=Will You Be Lonesome Too?
TTITLE6=Lady
TTITLE7=Showboat Gambler
TTITLE8=Tennessee Blues
TTITLE9=My Windows Faces the South
EXTD=
EXTT0=
EXTT1=
EXTT2=
EXTT3=
EXTT4=
EXTT5=
EXTT6=
EXTT7=
EXTT8=
EXTT9=
PLAYORDER=
